<?xml version="1.0"?><svg width="541.43182" height="547.19745" xmlns="http://www.w3.org/2000/svg">

 <metadata id="metadata16228">image/svg+xmlGreek alphabetGreek alphabetBenjaminGreek alphabet</metadata>
 <g>
  <title>Layer 1</title>
  <g id="layer1"/>
  <g id="g16655" transform="matrix(0.486738, 0, 0, -0.402734, -1627.82, 2204.61)">
   <path fill="currentColor" id="path16657" d="m3347.160645,5473.217773l1017.000488,0l27,-341l-38,0c-4.666992,67.333008 -16,118.666992 -34,154c-18,35.333008 -42.666992,61.333008 -74,78c-31.333984,16.666992 -81,24.666992 -149,24l-463.000488,0l413,-530l-470,-555l515,0c93.333496,0 164.666504,15 214.000488,45c49.333008,30 86.333008,92.666992 111,188l38,-9l-58,-410l-1049.000488,0l0,36l522,616l-522,668l0,36z"/>
  </g>
 </g>
</svg>